<mxfile host="app.diagrams.net" modified="2024-06-19T04:54:10.811Z" agent="Mozilla/5.0 (Windows NT 10.0; Win64; x64) AppleWebKit/537.36 (KHTML, like Gecko) Chrome/126.0.0.0 Safari/537.36" version="24.4.14" etag="cOAaAHTzsQ_j5pS-dq8v" type="github">
  <diagram name="Page-1" id="vopKgCUMJjVFK6pVovsc">
    <mxGraphModel>
      <root>
        <mxCell id="0" />
        <mxCell id="1" parent="0" />
      </root>
    </mxGraphModel>
  </diagram>
</mxfile>
